Patient4_TMGait_0pt4_02_left_27_EMG.mot
version=1
nRows=33
nColumns=33
inDegrees=no
endheader
time	1LAddLong	2LGlutMax	3LGlutMed	4LIliopsoas	5LSemiMemb	6LBicFemLong	7LRecFem	8LVastMed	9LVastLat	10LGasMed	11LTibAnt	12lTibPost	13LPeroneusLong	14LSol	15LExtDigLong	16LFlexDigLong	17RAddLong	18RGlutMax	19RGlutMed	20RIliopsoas	21RSemiMemb	22RBicFemLong	23RRecFem	24RVastMed	25RVastLat	26RGasMed	27RTibAnt	28RTibPost	29RPeroneusLong	30RSol	31RExtDigLong	32RFlexDigLong
37.63	0.009613	-0.006409	-0.023193	0.007935	0.009308	-0.017395	0.047455	0.00351	0.050812	-0.034485	0.013275	-0.005341	0.019379	-0.028076	0.010376	0.013885	-0.014496	-0.2121	0.16892	-0.074921	0.018616	0.083618	-0.13077	-0.1181	0.023193	0.019073	-0.50705	0.016785	-0.24918	0.34027	-0.005951	0.003052
37.631	0.006561	-0.020447	-0.039368	-0.001221	-0.006104	-0.005798	0.051727	-0.001831	0.033264	-0.029144	0.00473	0.000305	0.018616	-0.036621	0.010986	0.006714	-0.009918	-0.20416	0.77347	0.036926	0.018921	0.098267	-0.10666	0.31967	-0.13992	-0.00351	-0.71732	0.007019	0.066223	0.15518	-0.001526	-0.005341
37.632	-0.003967	-0.040588	-0.072479	0.003052	-0.020905	-0.024109	0.054474	-0.000916	0.023499	-0.010223	0.021973	-0.007019	-0.006714	-0.009613	0.014648	0.00061	-0.001221	-0.17777	0.66193	0.10788	0.000763	0.073853	0.16937	0.32974	-0.39352	-0.001373	-0.27008	0.009308	0.050812	0.2655	-0.003052	-0.001831
37.633	0.005798	-0.019989	-0.070648	-0.016174	-0.014191	-0.020142	0.032043	0.031128	0.042267	-0.014648	0.020752	-0.006561	-0.013275	-0.022583	0.024567	-0.000305	0.025177	-0.19791	0.10208	0.17792	-0.013885	0.068359	0.12268	0.18967	-0.52902	-0.003357	-0.3801	0.003052	0.054016	0.25436	-0.004272	0.005646
37.634	0.006256	-0.00351	-0.09201	-0.018921	-0.017395	0.002136	0.053864	0.007172	0.059204	-0.023346	-0.00412	-0.003662	0.012665	-0.020447	0.034332	0.003662	0.011902	-0.11078	-0.13046	0.14038	-0.016937	0.048218	0.068512	0.11826	-0.37476	-0.010529	-0.32166	-0.005798	0.17212	0.10452	-0.003815	0.008545
37.635	0.012207	-0.018158	-0.089111	-0.00824	-0.031128	0.001068	0.032349	0.011597	0.080719	-0.021667	-0.00412	-0.006256	0.016937	-0.023041	0.020294	-0.003662	0.014496	-0.12253	-0.052032	0.008545	-0.011139	0.064087	0.18051	0.13702	-0.14893	-0.014648	-0.31265	-0.007629	0.12161	0.018158	-0.001068	0.00351
37.636	0.002747	-0.03952	0.032959	0.012054	0.02243	-0.013275	0.048981	-0.009308	0.083313	-0.037079	-0.013885	-0.006409	0.007629	-0.046997	-0.001068	0.008392	0.011749	-0.14206	-0.030823	-0.034943	-0.020142	0.053558	0.3389	0.080719	-0.062714	-0.009308	0.051117	-0.006561	-0.010529	-0.074921	-0.003357	0.003357
37.637	0.011444	-0.041962	0.11246	0.007324	0.043182	-0.009918	0.056305	0.002899	0.097961	-0.034943	0.016174	-0.003204	0.002441	-0.028534	-0.014496	-0.00946	0.003662	-0.13275	0.12161	-0.042267	-0.008698	0.041351	0.23361	0.088348	0.030212	-0.010376	0.22461	-0.005798	-0.12116	-0.26474	-0.00061	-0.001221
37.638	0.00412	-0.063324	0.075226	-0.002594	0.042267	-0.009308	0.058899	0.006104	0.1004	-0.033264	0.026855	-0.006561	0.001373	-0.066376	-0.041199	0.005493	0.007019	-0.10178	0.33295	-0.025024	-0.013885	0.066681	0.14664	0.027161	0.04776	-0.011597	0.24429	-0.009003	-0.19073	-0.39825	-0.003357	-0.011597
37.639	0.004883	-0.076447	-0.002899	-0.00946	0.018768	0.00412	0.075226	0.004578	0.10407	-0.036621	0.015259	0.006104	0.00061	-0.024109	-0.024719	0.008392	0.000763	-0.19943	-0.25864	0.031128	-0.014954	0.074921	0.070343	-0.11795	0.003815	0.000458	0.06958	-0.009766	-0.019989	-0.37842	-0.005035	-0.011902
37.64	0.002289	-0.067749	0.03952	0.023804	-0.029602	0.007019	0.07309	0.00412	0.097351	-0.037994	-0.001373	-0.006714	0.000916	-0.052032	-0.006714	-0.00885	-0.010071	-0.22446	-0.37857	0.06134	-0.010834	0.089417	-0.36484	-0.11292	-0.060272	0.013123	-0.58121	-0.019684	0.20004	-0.15152	-0.001526	-0.009918
37.641	0.001221	-0.027008	0.021362	0.019531	-0.024109	-0.00473	0.093689	0.004425	0.093536	-0.033875	-0.02243	-0.004883	-0.002136	-0.058594	-0.002441	-0.005646	-0.015564	-0.14984	-0.53421	0.029449	-0.007782	0.11322	-0.37216	0.009155	0.007019	0.019836	-0.36667	-0.020599	0.14832	-0.078888	0.001068	-0.000916
37.642	-0.003815	-0.047607	-0.056915	0.00824	0.00412	0.027008	0.11627	-0.000458	0.07843	-0.029755	-0.000305	-0.002289	-0.009155	-0.057983	0.000153	-0.002594	0.022888	-0.093231	-0.50598	-0.00473	-0.015717	0.069122	0.075836	0.233	-0.031738	0.023041	-0.22492	-0.028381	0.29953	-0.21866	-0.002899	-0.002747
37.643	0.000153	-0.045929	-0.10757	0.006714	0.015106	0.021973	0.10513	0.004883	0.089874	-0.030975	0.028229	0.003052	-0.010834	-0.043945	0.00824	-0.000916	0.026245	-0.10834	0.12878	-0.025482	0.004425	0.090332	0.15076	0.29266	-0.029907	-0.002747	-0.092163	-0.089111	0.014496	-0.16312	0.002136	-0.006714
37.644	0.001984	-0.054474	-0.024414	0.006561	0.013885	0.020142	0.10346	0.001068	0.079041	-0.028687	0.024109	0.000305	-0.032043	-0.050964	0.009918	-0.007477	0.006104	-0.090179	0.025635	-0.041809	0.032196	0.095673	0.00351	0.37537	0.1329	0.000305	0.033875	0.018768	-0.27176	0.048065	0.000305	0.001526
37.645	0.010986	-0.067291	0.062408	0.00885	-0.019989	-0.011749	0.096283	-0.000763	0.07309	-0.033875	-0.008698	-0.007019	-0.040741	-0.045471	0.017853	-0.00351	0.031128	-0.10437	-0.070038	-0.032806	0.028534	0.084534	-0.028839	0.14496	0.17212	-0.00824	0.1944	0.056	-0.23514	0.027618	-0.001526	-0.011597
37.646	0.010376	-0.075531	-0.005798	0.01358	0.019379	-0.042267	0.093536	0.002594	0.079041	-0.039368	0.017242	0.006104	-0.02182	-0.061646	0.005341	-0.009003	0.033417	-0.14755	-0.1178	-0.012207	-0.004578	0.094452	0.18845	-0.30579	0.02655	-0.004578	0.068359	0.02182	-0.084534	0.50064	0.001373	-0.00351
37.647	0.007324	-0.12039	0.050659	0.008087	0.016785	-0.007019	0.094604	-0.003662	0.072327	-0.042114	-0.010071	-0.001678	0.002594	-0.038452	0.007477	-0.004272	-0.002594	-0.088501	0.28976	-0.012817	-0.066833	0.13031	0.15076	-0.38162	-0.029602	-0.014191	0.036469	0.003357	0.1442	0.61706	-0.003967	-0.00885
37.648	0.012054	-0.076904	0.058746	0.005951	0.014343	-0.011597	0.085602	-0.000763	0.073547	-0.048218	0.005188	0.005035	-0.018463	-0.04364	0.014191	-0.006256	-0.011139	-0.17136	0.12192	-0.013123	-0.036316	0.11032	-0.22568	-0.24124	-0.044403	-0.012817	0.066681	-0.011292	-0.020447	0.41321	-0.000916	0.003357
37.649	0.002899	-0.082703	0.069275	-0.006561	0.005493	0.028229	0.090179	0.003357	0.063782	-0.051727	0.013885	0.010986	-0.028076	-0.023193	0.019836	-0.001984	-0.002136	-0.19333	0.02243	0.039215	0.04776	0.055542	-0.22278	-0.13153	-0.003815	-0.000305	0.04364	-0.11231	-0.17563	0.35782	-0.002136	0.002289
37.65	-0.002899	-0.066986	0.016632	0.005341	-0.016785	0.046997	0.099487	0.005493	0.051117	-0.027161	0.008698	0.002594	-0.024109	-0.040894	0.020599	-0.010681	-0.001068	-0.22339	0.23727	0.050507	0.03418	0.07431	-0.032501	-0.037689	-0.020905	0.004272	-0.001526	0.094757	-0.011749	0.21225	-0.005951	0.012207
37.651	-0.004272	-0.062103	0.01709	0.008698	-0.026398	0.028992	0.088806	0.008392	0.036926	-0.019226	0.023499	0.000153	-0.045624	-0.030365	0.014191	0.00412	0.003357	-0.20645	0.11032	0.023804	0.024567	0.075378	0.076294	-0.028534	0.001373	0.006561	-0.056	0.049591	0.099792	-0.18127	-0.00412	0.00412
37.652	-0.004272	-0.055847	-0.009308	0.019073	-0.051575	-0.021057	0.099335	0.001373	0.043488	-0.011444	-0.001984	0.005035	-0.009155	-0.053711	0.014191	0.006104	0.003052	-0.055847	0.13336	0.062408	0.02121	0.063782	0.094604	-0.058746	0.00412	0.001831	-0.10727	0.00473	0.10391	-0.2536	-0.001678	-0.008392
37.653	0.00885	-0.053406	0.011597	0.001984	-0.00412	-0.057831	0.073395	0.007782	0.04715	-0.011902	-0.05661	0.005646	-0.036011	-0.035095	0.016174	-0.001526	0.019226	-0.079041	-0.031281	0.043335	0.026855	0.066223	0.09201	-0.086365	0.048676	0.00946	0.20142	0.005493	0.017548	0.034943	-0.000153	-0.01358
37.654	0.014343	-0.095062	-0.018005	0.01236	0.11658	-0.074921	0.037994	0.003662	0.076141	-0.02655	-0.070953	0.007477	-0.050049	-0.051575	0.010529	-0.000153	0.009918	-0.090027	-0.065155	0.032196	0.055237	0.061188	0.15121	-0.11215	0.071716	0.015259	0.4512	-0.013428	-0.066223	0.051575	-0.004883	-0.010223
37.655	0.013275	-0.10361	-0.002136	0.01358	0.066528	-0.031586	0.040131	0.007324	0.076141	-0.044861	-0.080719	0.003967	-0.041962	-0.06012	0.019531	0.002747	0.026398	-0.1593	-0.28183	0.074005	0.021515	0.10391	0.25116	-0.033417	0.049591	-0.000458	0.35034	0.010376	-0.020599	0.042419	-0.006409	-0.007629
37.656	0.016479	-0.090637	0.013428	0.003357	0.02243	0.017395	0.017548	0.000763	0.091705	-0.066071	-0.046997	0.007477	-0.020294	-0.071869	0.006409	-0.005798	0.011749	-0.12878	-0.11108	0.036316	-0.049896	0.13016	0.22812	0.00412	-0.019989	-0.002441	-0.12787	-0.000916	0.002594	0.069885	-0.005035	-0.004578
37.657	0.016022	-0.097504	0.019073	0.010223	0.032501	0.00885	0.028839	0.005035	0.093536	-0.06134	0.070038	0.009766	-0.028076	-0.046082	0.011749	-0.001831	-0.009918	-0.14206	0.46036	-0.084381	-0.10284	0.14114	0.097961	0.079193	-0.089569	-0.001526	-0.088806	0.00351	-0.103	0.041809	-0.003052	-0.005646
37.658	0.00412	-0.11322	-0.000153	-0.00473	0.023499	0.003357	0.021973	0.003967	0.092621	-0.037689	0.091553	0.005493	-0.039825	-0.05661	-0.002441	-0.002136	-0.029755	-0.10132	-0.033264	-0.059814	0.069885	0.077362	0.087891	0.093536	-0.095673	-0.002747	-0.03006	-0.004578	-0.17197	-0.031586	-0.006714	-0.015411
37.659	0.010071	-0.10407	-0.021973	0.004425	0.019836	-0.012054	0.012817	0.005035	0.096588	-0.050354	0.06546	0.002899	-0.000763	-0.069733	-0.02182	-0.014954	-0.004578	-0.12161	-0.43701	-0.046234	0.063934	0.036469	0.058136	0.061035	-0.067902	-0.001831	0.2153	-0.005188	-0.2298	-0.079803	-0.002136	-0.011444
37.66	0.002594	-0.099182	-0.037842	-0.004578	0.00351	-0.023804	0.000916	-0.005798	0.087891	-0.028839	0.04425	0.004883	-0.031586	-0.058441	-0.003052	-0.010376	0.001984	-0.12375	-0.38101	-0.065155	0.04364	0.055542	-0.089264	0.084839	-0.020294	0.009613	0.30716	-0.006256	-0.12802	-0.082855	-0.001526	-0.006409
37.661	0.005341	-0.10712	-0.034485	-0.001526	-0.00885	-0.023499	0.001068	0.001373	0.079498	-0.018616	0.058899	0.00946	-0.054321	-0.038452	0.005341	-0.003357	0.00824	-0.14389	-0.37918	-0.011749	0.052032	0.05127	-0.038605	-0.007019	-0.002899	0.017548	0.34622	-0.005646	-0.076141	0.031891	-0.001221	-0.001068
37.662	-0.000916	-0.095673	-0.051117	0.01709	-0.059052	-0.005798	0.003052	0.005493	0.075989	-0.023041	0.036774	0.002899	-0.049591	-0.051422	0.009155	-0.010681	0.018768	-0.099182	-0.5838	0.037079	0.031738	0.023651	0.019989	-0.17105	-0.029755	0.013428	0.28931	-0.00412	0.00061	0.001068	0.001373	-0.007935
